<?xml version="1.0" standalone="no"?>
<!DOCTYPE svg PUBLIC "-//W3C//DTD SVG 20010904//EN"
 "http://www.w3.org/TR/2001/REC-SVG-20010904/DTD/svg10.dtd">
<svg version="1.0" xmlns="http://www.w3.org/2000/svg"
 width="435.000000pt" height="435.000000pt" viewBox="0 0 435.000000 435.000000"
 preserveAspectRatio="xMidYMid meet">
<metadata>
Created by potrace 1.11, written by Peter Selinger 2001-2013
</metadata>
<g transform="translate(0.000000,435.000000) scale(0.100000,-0.100000)"
fill="#000000" stroke="none">
<path d="M1955 4340 c-896 -103 -1623 -715 -1864 -1572 -58 -208 -75 -339 -75
-583 0 -185 3 -240 23 -350 125 -709 546 -1274 1182 -1590 603 -299 1305 -299
1908 0 443 220 766 543 986 986 299 603 299 1305 0 1908 -317 637 -884 1059
-1590 1182 -137 23 -439 34 -570 19z m41 -409 c22 -10 50 -31 62 -46 69 -87
38 -210 -62 -256 -55 -25 -94 -24 -146 4 -118 62 -118 235 0 295 54 27 92 28
146 3z m-1060 -1030 c78 -36 120 -127 95 -204 -16 -46 -80 -104 -125 -113 -61
-11 -106 4 -152 50 -69 68 -72 155 -7 227 53 59 117 72 189 40z m1624 -346
c34 -17 56 -44 75 -88 21 -50 19 -86 -8 -137 -27 -51 -90 -90 -147 -90 -57 0
-120 39 -147 90 -29 54 -29 94 0 150 45 88 139 119 227 75z m834 -475 c108
-66 97 -239 -18 -291 -52 -23 -90 -23 -142 0 -58 26 -87 72 -91 140 -5 73 24
125 87 159 54 28 110 26 164 -8z m-26 -777 c76 -56 93 -165 37 -238 -108 -143
-342 -30 -296 142 10 37 53 87 96 112 31 18 130 8 163 -16z m-795 -417 c50
-20 95 -78 102 -130 13 -86 -54 -175 -142 -192 -49 -9 -118 21 -156 68 -105
130 41 319 196 254z"/>
</g>
</svg>
