<?xml version="1.0" encoding="UTF-8" standalone="no" ?>
<!DOCTYPE svg PUBLIC "-//W3C//DTD SVG 1.1//EN" "http://www.w3.org/Graphics/SVG/1.1/DTD/svg11.dtd">
<svg xmlns="http://www.w3.org/2000/svg" xmlns:xlink="http://www.w3.org/1999/xlink" version="1.1" width="1080" height="1080" viewBox="0 0 1080 1080" xml:space="preserve">
<desc>Created with Fabric.js 4.2.0</desc>
<defs>
</defs>
<rect x="0" y="0" width="100%" height="100%" fill="transparent"></rect>
<g transform="matrix(1 0 0 1 540 540)" id="6c0324e1-b484-4145-acf3-57b8dd5a24f5"  >
<rect style="stroke: none; stroke-width: 1; stroke-dasharray: none; stroke-linecap: butt; stroke-dashoffset: 0; stroke-linejoin: miter; stroke-miterlimit: 4; fill: rgb(255,255,255); fill-rule: nonzero; opacity: 1; visibility: hidden;" vector-effect="scaling-stroke"  x="-540" y="-540" rx="0" ry="0" width="1080" height="1080" />
</g>
<g transform="matrix(1 0 0 1 540 540)" id="8ecf9fed-f0d0-4783-bce7-a0e40432e1ed"  >
</g>
<g transform="matrix(12.27 0 0 12.27 540 540)"  >
<path style="stroke: rgb(0,0,0); stroke-width: 0; stroke-dasharray: none; stroke-linecap: butt; stroke-dashoffset: 0; stroke-linejoin: miter; stroke-miterlimit: 4; fill: rgb(134,80,0); fill-rule: nonzero; opacity: 1;" vector-effect="scaling-stroke"  transform=" translate(-50, -50)" d="M 50 92.875 C 26.358 92.875 7.125 73.642 7.125 50 C 7.125 26.358000000000004 26.358 7.125 50 7.125 C 73.642 7.125 92.875 26.358 92.875 50 C 92.875 73.642 73.642 92.875 50 92.875 z M 50 9.125 C 27.461 9.125 9.125 27.461 9.125 50 C 9.125 72.538 27.461 90.875 50 90.875 C 72.538 90.875 90.875 72.538 90.875 50 C 90.875 27.461 72.538 9.125 50 9.125 z" stroke-linecap="round" />
</g>
<g transform="matrix(1 0 0 1 220.69 457.44)"  >
<path style="stroke: rgb(136,102,85); stroke-opacity: 0; stroke-width: 30; stroke-dasharray: none; stroke-linecap: round; stroke-dashoffset: 0; stroke-linejoin: round; stroke-miterlimit: 10; fill: none; fill-rule: nonzero; opacity: 1;" vector-effect="scaling-stroke"  transform=" translate(-220.7, -457.43)" d="M 106.40478260869565 449.60869565217394 Q 106.43478260869566 449.60869565217394 108 449.60869565217394 Q 109.56521739130436 449.60869565217394 111.1304347826087 449.60869565217394 Q 112.69565217391305 449.60869565217394 115.82608695652175 449.60869565217394 Q 118.95652173913044 449.60869565217394 120.52173913043478 449.60869565217394 Q 122.08695652173914 449.60869565217394 125.21739130434784 449.60869565217394 Q 128.34782608695653 449.60869565217394 129.91304347826087 449.60869565217394 Q 131.47826086956522 449.60869565217394 133.04347826086956 449.60869565217394 Q 134.6086956521739 449.60869565217394 137.73913043478262 449.60869565217394 Q 140.8695652173913 449.60869565217394 144 449.60869565217394 Q 147.1304347826087 449.60869565217394 148.69565217391306 449.60869565217394 Q 150.2608695652174 449.60869565217394 151.82608695652175 449.60869565217394 Q 153.3913043478261 449.60869565217394 154.95652173913044 449.60869565217394 Q 156.52173913043478 449.60869565217394 158.08695652173913 449.60869565217394 Q 159.6521739130435 449.60869565217394 161.21739130434784 449.60869565217394 Q 162.7826086956522 449.60869565217394 164.34782608695653 449.60869565217394 Q 165.91304347826087 449.60869565217394 167.47826086956522 451.17391304347825 Q 169.04347826086956 452.7391304347826 170.60869565217394 452.7391304347826 Q 172.17391304347828 452.7391304347826 173.73913043478262 452.7391304347826 Q 175.30434782608697 452.7391304347826 178.43478260869566 452.7391304347826 Q 181.56521739130434 452.7391304347826 184.69565217391306 452.7391304347826 Q 187.82608695652175 452.7391304347826 189.3913043478261 452.7391304347826 Q 190.95652173913044 452.7391304347826 192.52173913043478 452.7391304347826 Q 194.08695652173913 452.7391304347826 197.2173913043478 454.304347826087 Q 200.34782608695653 455.8695652173913 203.47826086956525 455.8695652173913 Q 206.60869565217394 455.8695652173913 208.17391304347828 455.8695652173913 Q 209.73913043478262 455.8695652173913 212.8695652173913 455.8695652173913 Q 216 455.8695652173913 219.1304347826087 455.8695652173913 Q 222.2608695652174 455.8695652173913 226.95652173913044 455.8695652173913 Q 231.6521739130435 455.8695652173913 236.34782608695653 457.4347826086956 Q 241.04347826086956 459 244.17391304347825 459 Q 247.30434782608697 459 250.43478260869568 459 Q 253.56521739130437 459 255.13043478260872 459 Q 256.69565217391306 459 258.2608695652174 459 Q 259.82608695652175 459 261.3913043478261 459 Q 262.95652173913044 459 264.52173913043475 459 Q 266.0869565217391 459 267.6521739130435 459 Q 269.2173913043478 459 272.3478260869565 459 Q 275.47826086956525 459 277.0434782608696 459 Q 278.60869565217394 459 280.17391304347825 459 Q 281.7391304347826 459 283.304347826087 459 Q 284.8695652173913 459 286.4347826086956 459 Q 288 459 289.5652173913044 460.5652173913044 Q 291.1304347826087 462.1304347826087 292.695652173913 462.1304347826087 Q 294.2608695652174 462.1304347826087 295.82608695652175 462.1304347826087 Q 297.3913043478261 462.1304347826087 298.9565217391305 462.1304347826087 Q 300.5217391304348 462.1304347826087 303.6521739130435 462.1304347826087 Q 306.7826086956522 462.1304347826087 308.3478260869565 462.1304347826087 Q 309.9130434782609 462.1304347826087 311.47826086956525 462.1304347826087 Q 313.04347826086956 462.1304347826087 314.6086956521739 462.1304347826087 Q 316.17391304347825 462.1304347826087 317.7391304347826 462.1304347826087 Q 319.304347826087 462.1304347826087 322.4347826086957 463.69565217391306 Q 325.5652173913044 465.26086956521743 328.69565217391306 465.26086956521743 Q 331.82608695652175 465.26086956521743 333.3913043478261 465.26086956521743 L 334.9865217391304 465.26086956521743" stroke-linecap="round" />
</g>
<g transform="matrix(4.45 0 0 4.45 317.56 323.01)" id="9b5f3d9b-f771-4654-bd8f-a5955bb68e4f"  >
<path style="stroke: rgb(0,0,0); stroke-width: 0; stroke-dasharray: none; stroke-linecap: butt; stroke-dashoffset: 0; stroke-linejoin: miter; stroke-miterlimit: 4; fill: rgb(134,80,0); fill-rule: nonzero; opacity: 1;" vector-effect="scaling-stroke"  transform=" translate(-50, -50)" d="M 76.854 20.966 C 81.821 20.966 85.82 24.965 85.82 29.872 L 85.82 77.366 C 85.82 82.275 81.821 86.332 76.854 86.332 L 29.417 86.332 C 24.450000000000003 86.332 20.451 82.27499999999999 20.451 77.366 C 20.633 70.762 37.172 68.342 48.925 63.192 L 15.907 30.176 C 13.605 27.813 13.605 24.055999999999997 15.907 21.753999999999998 L 22.268 15.392999999999997 C 24.57 13.090999999999998 28.326 13.090999999999998 30.628 15.392999999999997 L 63.221000000000004 48.047 C 67.888 36.597 70.188 21.814 76.854 20.966 z" stroke-linecap="round" />
</g>
<g transform="matrix(0 4.45 -4.45 0 756.36 323.54)"  >
<path style="stroke: rgb(0,0,0); stroke-width: 0; stroke-dasharray: none; stroke-linecap: butt; stroke-dashoffset: 0; stroke-linejoin: miter; stroke-miterlimit: 4; fill: rgb(134,80,0); fill-rule: nonzero; opacity: 1;" vector-effect="scaling-stroke"  transform=" translate(-50, -50)" d="M 76.854 20.966 C 81.821 20.966 85.82 24.965 85.82 29.872 L 85.82 77.366 C 85.82 82.275 81.821 86.332 76.854 86.332 L 29.417 86.332 C 24.450000000000003 86.332 20.451 82.27499999999999 20.451 77.366 C 20.633 70.762 37.172 68.342 48.925 63.192 L 15.907 30.176 C 13.605 27.813 13.605 24.055999999999997 15.907 21.753999999999998 L 22.268 15.392999999999997 C 24.57 13.090999999999998 28.326 13.090999999999998 30.628 15.392999999999997 L 63.221000000000004 48.047 C 67.888 36.597 70.188 21.814 76.854 20.966 z" stroke-linecap="round" />
</g>
<g transform="matrix(0 -4.45 4.45 0 318.71 756.15)"  >
<path style="stroke: rgb(0,0,0); stroke-width: 0; stroke-dasharray: none; stroke-linecap: butt; stroke-dashoffset: 0; stroke-linejoin: miter; stroke-miterlimit: 4; fill: rgb(134,80,0); fill-rule: nonzero; opacity: 1;" vector-effect="scaling-stroke"  transform=" translate(-50, -50)" d="M 76.854 20.966 C 81.821 20.966 85.82 24.965 85.82 29.872 L 85.82 77.366 C 85.82 82.275 81.821 86.332 76.854 86.332 L 29.417 86.332 C 24.450000000000003 86.332 20.451 82.27499999999999 20.451 77.366 C 20.633 70.762 37.172 68.342 48.925 63.192 L 15.907 30.176 C 13.605 27.813 13.605 24.055999999999997 15.907 21.753999999999998 L 22.268 15.392999999999997 C 24.57 13.090999999999998 28.326 13.090999999999998 30.628 15.392999999999997 L 63.221000000000004 48.047 C 67.888 36.597 70.188 21.814 76.854 20.966 z" stroke-linecap="round" />
</g>
<g transform="matrix(-4.45 0 0 -4.45 752.49 761.92)"  >
<path style="stroke: rgb(0,0,0); stroke-width: 0; stroke-dasharray: none; stroke-linecap: butt; stroke-dashoffset: 0; stroke-linejoin: miter; stroke-miterlimit: 4; fill: rgb(134,80,0); fill-rule: nonzero; opacity: 1;" vector-effect="scaling-stroke"  transform=" translate(-50, -50)" d="M 76.854 20.966 C 81.821 20.966 85.82 24.965 85.82 29.872 L 85.82 77.366 C 85.82 82.275 81.821 86.332 76.854 86.332 L 29.417 86.332 C 24.450000000000003 86.332 20.451 82.27499999999999 20.451 77.366 C 20.633 70.762 37.172 68.342 48.925 63.192 L 15.907 30.176 C 13.605 27.813 13.605 24.055999999999997 15.907 21.753999999999998 L 22.268 15.392999999999997 C 24.57 13.090999999999998 28.326 13.090999999999998 30.628 15.392999999999997 L 63.221000000000004 48.047 C 67.888 36.597 70.188 21.814 76.854 20.966 z" stroke-linecap="round" />
</g>
<g transform="matrix(11.25 0 0 11.25 540 540)" id="f0e3ac05-2987-46b0-9622-3be92c906d85"  >
<path style="stroke: rgb(134,80,0); stroke-width: 50; stroke-dasharray: none; stroke-linecap: butt; stroke-dashoffset: 0; stroke-linejoin: miter; stroke-miterlimit: 4; fill: rgb(101,101,101); fill-rule: nonzero; opacity: 1;" vector-effect="scaling-stroke"  transform=" translate(-50, -50)" d="M 50 92.875 C 26.358 92.875 7.125 73.642 7.125 50 C 7.125 26.358000000000004 26.358 7.125 50 7.125 C 73.642 7.125 92.875 26.358 92.875 50 C 92.875 73.642 73.642 92.875 50 92.875 z M 50 9.125 C 27.461 9.125 9.125 27.461 9.125 50 C 9.125 72.538 27.461 90.875 50 90.875 C 72.538 90.875 90.875 72.538 90.875 50 C 90.875 27.461 72.538 9.125 50 9.125 z" stroke-linecap="round" />
</g>
<g transform="matrix(9.64 0 0 9.76 540 540)" id="bce712ac-cefd-462f-a8e2-62908cfaf60a"  >
<path style="stroke: rgb(134,80,0); stroke-width: 50; stroke-dasharray: none; stroke-linecap: butt; stroke-dashoffset: 0; stroke-linejoin: miter; stroke-miterlimit: 4; fill: rgb(101,101,101); fill-rule: nonzero; opacity: 1;" vector-effect="scaling-stroke"  transform=" translate(-50, -50)" d="M 50 92.875 C 26.358 92.875 7.125 73.642 7.125 50 C 7.125 26.358000000000004 26.358 7.125 50 7.125 C 73.642 7.125 92.875 26.358 92.875 50 C 92.875 73.642 73.642 92.875 50 92.875 z M 50 9.125 C 27.461 9.125 9.125 27.461 9.125 50 C 9.125 72.538 27.461 90.875 50 90.875 C 72.538 90.875 90.875 72.538 90.875 50 C 90.875 27.461 72.538 9.125 50 9.125 z" stroke-linecap="round" />
</g>
<g transform="matrix(2.76 0 0 5 386.13 318.24)" id="295e2ace-39be-4eed-9ca4-5f3ca9b30473"  >
<rect style="stroke: rgb(0,0,0); stroke-width: 0; stroke-dasharray: none; stroke-linecap: butt; stroke-dashoffset: 0; stroke-linejoin: miter; stroke-miterlimit: 4; fill: rgb(134,80,0); fill-rule: nonzero; opacity: 1;" vector-effect="scaling-stroke"  x="-33.0835" y="-33.0835" rx="0" ry="0" width="66.167" height="66.167" />
</g>
<g transform="matrix(0 -2.76 5 0 302.27 393.99)" id="295e2ace-39be-4eed-9ca4-5f3ca9b30473"  >
<rect style="stroke: rgb(0,0,0); stroke-width: 0; stroke-dasharray: none; stroke-linecap: butt; stroke-dashoffset: 0; stroke-linejoin: miter; stroke-miterlimit: 4; fill: rgb(134,80,0); fill-rule: nonzero; opacity: 1;" vector-effect="scaling-stroke"  x="-33.085" y="-33.085" rx="0" ry="0" width="66.17" height="66.17" />
</g>
<g transform="matrix(0 -2.76 5 0 315.41 685.73)" id="295e2ace-39be-4eed-9ca4-5f3ca9b30473"  >
<rect style="stroke: rgb(0,0,0); stroke-width: 0; stroke-dasharray: none; stroke-linecap: butt; stroke-dashoffset: 0; stroke-linejoin: miter; stroke-miterlimit: 4; fill: rgb(134,80,0); fill-rule: nonzero; opacity: 1;" vector-effect="scaling-stroke"  x="-33.085" y="-33.085" rx="0" ry="0" width="66.17" height="66.17" />
</g>
<g transform="matrix(-2.76 0 0 -5 388.01 758.34)" id="295e2ace-39be-4eed-9ca4-5f3ca9b30473"  >
<rect style="stroke: rgb(0,0,0); stroke-width: 0; stroke-dasharray: none; stroke-linecap: butt; stroke-dashoffset: 0; stroke-linejoin: miter; stroke-miterlimit: 4; fill: rgb(134,80,0); fill-rule: nonzero; opacity: 1;" vector-effect="scaling-stroke"  x="-33.085" y="-33.085" rx="0" ry="0" width="66.17" height="66.17" />
</g>
<g transform="matrix(-2.76 0 0 -5 686.01 317.56)" id="295e2ace-39be-4eed-9ca4-5f3ca9b30473"  >
<rect style="stroke: rgb(0,0,0); stroke-width: 0; stroke-dasharray: none; stroke-linecap: butt; stroke-dashoffset: 0; stroke-linejoin: miter; stroke-miterlimit: 4; fill: rgb(134,80,0); fill-rule: nonzero; opacity: 1;" vector-effect="scaling-stroke"  x="-33.085" y="-33.085" rx="0" ry="0" width="66.17" height="66.17" />
</g>
<g transform="matrix(-2.76 0 0 -5 683.49 765.83)" id="295e2ace-39be-4eed-9ca4-5f3ca9b30473"  >
<rect style="stroke: rgb(0,0,0); stroke-width: 0; stroke-dasharray: none; stroke-linecap: butt; stroke-dashoffset: 0; stroke-linejoin: miter; stroke-miterlimit: 4; fill: rgb(134,80,0); fill-rule: nonzero; opacity: 1;" vector-effect="scaling-stroke"  x="-33.085" y="-33.085" rx="0" ry="0" width="66.17" height="66.17" />
</g>
<g transform="matrix(0 2.76 -5 0 765.5 691.3)" id="295e2ace-39be-4eed-9ca4-5f3ca9b30473"  >
<rect style="stroke: rgb(0,0,0); stroke-width: 0; stroke-dasharray: none; stroke-linecap: butt; stroke-dashoffset: 0; stroke-linejoin: miter; stroke-miterlimit: 4; fill: rgb(134,80,0); fill-rule: nonzero; opacity: 1;" vector-effect="scaling-stroke"  x="-33.085" y="-33.085" rx="0" ry="0" width="66.17" height="66.17" />
</g>
<g transform="matrix(0 2.76 -5 0 803.67 391.39)" id="295e2ace-39be-4eed-9ca4-5f3ca9b30473"  >
<rect style="stroke: rgb(0,0,0); stroke-width: 0; stroke-dasharray: none; stroke-linecap: butt; stroke-dashoffset: 0; stroke-linejoin: miter; stroke-miterlimit: 4; fill: rgb(134,80,0); fill-rule: nonzero; opacity: 1;" vector-effect="scaling-stroke"  x="-33.085" y="-33.085" rx="0" ry="0" width="66.17" height="66.17" />
</g>
<g transform="matrix(0 1.48 -2.68 0 540 121.13)" id="295e2ace-39be-4eed-9ca4-5f3ca9b30473"  >
<rect style="stroke: rgb(0,0,0); stroke-width: 0; stroke-dasharray: none; stroke-linecap: butt; stroke-dashoffset: 0; stroke-linejoin: miter; stroke-miterlimit: 4; fill: rgb(134,80,0); fill-rule: nonzero; opacity: 1;" vector-effect="scaling-stroke"  x="-33.085" y="-33.085" rx="0" ry="0" width="66.17" height="66.17" />
</g>
<g transform="matrix(0 1.48 -2.68 0 540 948.18)" id="295e2ace-39be-4eed-9ca4-5f3ca9b30473"  >
<rect style="stroke: rgb(0,0,0); stroke-width: 0; stroke-dasharray: none; stroke-linecap: butt; stroke-dashoffset: 0; stroke-linejoin: miter; stroke-miterlimit: 4; fill: rgb(134,80,0); fill-rule: nonzero; opacity: 1;" vector-effect="scaling-stroke"  x="-33.085" y="-33.085" rx="0" ry="0" width="66.17" height="66.17" />
</g>
<g transform="matrix(1.48 0 0 2.68 127.39 540)" id="295e2ace-39be-4eed-9ca4-5f3ca9b30473"  >
<rect style="stroke: rgb(0,0,0); stroke-width: 0; stroke-dasharray: none; stroke-linecap: butt; stroke-dashoffset: 0; stroke-linejoin: miter; stroke-miterlimit: 4; fill: rgb(134,80,0); fill-rule: nonzero; opacity: 1;" vector-effect="scaling-stroke"  x="-33.085" y="-33.085" rx="0" ry="0" width="66.17" height="66.17" />
</g>
<g transform="matrix(-1.48 0 0 -2.68 953.86 540)" id="295e2ace-39be-4eed-9ca4-5f3ca9b30473"  >
<rect style="stroke: rgb(0,0,0); stroke-width: 0; stroke-dasharray: none; stroke-linecap: butt; stroke-dashoffset: 0; stroke-linejoin: miter; stroke-miterlimit: 4; fill: rgb(134,80,0); fill-rule: nonzero; opacity: 1;" vector-effect="scaling-stroke"  x="-33.085" y="-33.085" rx="0" ry="0" width="66.17" height="66.17" />
</g>
</svg>