<?xml version="1.0" encoding="UTF-8" standalone="no" ?>
<!DOCTYPE svg PUBLIC "-//W3C//DTD SVG 1.1//EN" "http://www.w3.org/Graphics/SVG/1.1/DTD/svg11.dtd">
<svg xmlns="http://www.w3.org/2000/svg" xmlns:xlink="http://www.w3.org/1999/xlink" version="1.1" width= "1080" height= "1080" viewBox="300 300 480 480" xml:space="preserve">
<desc>Created with Fabric.js 4.2.0</desc>
<defs>
</defs>
<g transform="matrix(1 0 0 1 540 540)" id="c36e29dc-0467-4952-a898-5eadba7287cf"  >
<rect style="stroke: none; stroke-width: 1; stroke-dasharray: none; stroke-linecap: butt; stroke-dashoffset: 0; stroke-linejoin: miter; stroke-miterlimit: 4; fill: rgb(255,255,255); fill-rule: nonzero; opacity: 1; visibility: hidden;" vector-effect="non-scaling-stroke"  x="-540" y="-540" rx="0" ry="0" width="1080" height="1080" />
</g>
<g transform="matrix(1 0 0 1 540 540)" id="6adec79d-ba63-44ae-bed2-ac6ec6f8d958"  >
</g>
<g transform="matrix(6.17 0 0 6.17 540 540)" id="4e281790-c197-469f-940d-d90816be9998"  >
<circle style="stroke: rgb(0,0,0); stroke-width: 1; stroke-dasharray: none; stroke-linecap: butt; stroke-dashoffset: 0; stroke-linejoin: miter; stroke-miterlimit: 4; fill: rgb(182,108,0); fill-rule: nonzero; opacity: 1;" vector-effect="non-scaling-stroke"  cx="0" cy="0" r="35" />
</g>
<g transform="matrix(1.13 0 0 1.13 416.41 607.66)" id="82c2ccc5-4cc8-4834-b813-a5656f53244f"  >
<circle style="stroke: rgb(0,0,0); stroke-width: 1; stroke-dasharray: none; stroke-linecap: butt; stroke-dashoffset: 0; stroke-linejoin: miter; stroke-miterlimit: 4; fill: rgb(134,80,0); fill-rule: nonzero; opacity: 1;" vector-effect="non-scaling-stroke"  cx="0" cy="0" r="35" />
</g>
<g transform="matrix(-0.5 0 0 0.5 408.43 482.59)" id="f8ce8509-c677-4048-8f05-5cdd7f1213c7"  >
<circle style="stroke: rgb(0,0,0); stroke-width: 1; stroke-dasharray: none; stroke-linecap: butt; stroke-dashoffset: 0; stroke-linejoin: miter; stroke-miterlimit: 4; fill: rgb(255,198,99); fill-rule: nonzero; opacity: 1;" vector-effect="non-scaling-stroke"  cx="0" cy="0" r="35" />
</g>
<g transform="matrix(0.72 0 0 0.72 492.42 540.14)" id="82c2ccc5-4cc8-4834-b813-a5656f53244f"  >
<circle style="stroke: rgb(0,0,0); stroke-width: 1; stroke-dasharray: none; stroke-linecap: butt; stroke-dashoffset: 0; stroke-linejoin: miter; stroke-miterlimit: 4; fill: rgb(134,80,0); fill-rule: nonzero; opacity: 1;" vector-effect="non-scaling-stroke"  cx="0" cy="0" r="35" />
</g>
<g transform="matrix(0.91 0 0 0.91 486.97 672.86)" id="82c2ccc5-4cc8-4834-b813-a5656f53244f"  >
<circle style="stroke: rgb(0,0,0); stroke-width: 1; stroke-dasharray: none; stroke-linecap: butt; stroke-dashoffset: 0; stroke-linejoin: miter; stroke-miterlimit: 4; fill: rgb(134,80,0); fill-rule: nonzero; opacity: 1;" vector-effect="non-scaling-stroke"  cx="0" cy="0" r="35" />
</g>
<g transform="matrix(-0.5 0 0 0.5 648.79 642.59)" id="f8ce8509-c677-4048-8f05-5cdd7f1213c7"  >
<circle style="stroke: rgb(0,0,0); stroke-width: 1; stroke-dasharray: none; stroke-linecap: butt; stroke-dashoffset: 0; stroke-linejoin: miter; stroke-miterlimit: 4; fill: rgb(255,198,99); fill-rule: nonzero; opacity: 1;" vector-effect="non-scaling-stroke"  cx="0" cy="0" r="35" />
</g>
<g transform="matrix(-0.5 0 0 0.5 514.15 379.37)" id="f8ce8509-c677-4048-8f05-5cdd7f1213c7"  >
<circle style="stroke: rgb(0,0,0); stroke-width: 1; stroke-dasharray: none; stroke-linecap: butt; stroke-dashoffset: 0; stroke-linejoin: miter; stroke-miterlimit: 4; fill: rgb(255,198,99); fill-rule: nonzero; opacity: 1;" vector-effect="non-scaling-stroke"  cx="0" cy="0" r="35" />
</g>
<g transform="matrix(1.15 0 0 1.15 571.04 433.14)" id="82c2ccc5-4cc8-4834-b813-a5656f53244f"  >
<circle style="stroke: rgb(0,0,0); stroke-width: 1; stroke-dasharray: none; stroke-linecap: butt; stroke-dashoffset: 0; stroke-linejoin: miter; stroke-miterlimit: 4; fill: rgb(134,80,0); fill-rule: nonzero; opacity: 1;" vector-effect="non-scaling-stroke"  cx="0" cy="0" r="35" />
</g>
<g transform="matrix(0.73 0 0 0.73 573.48 590.94)" id="82c2ccc5-4cc8-4834-b813-a5656f53244f"  >
<circle style="stroke: rgb(0,0,0); stroke-width: 1; stroke-dasharray: none; stroke-linecap: butt; stroke-dashoffset: 0; stroke-linejoin: miter; stroke-miterlimit: 4; fill: rgb(134,80,0); fill-rule: nonzero; opacity: 1;" vector-effect="non-scaling-stroke"  cx="0" cy="0" r="35" />
</g>
<g transform="matrix(-0.5 0 0 0.5 569.5 516.87)" id="f8ce8509-c677-4048-8f05-5cdd7f1213c7"  >
<circle style="stroke: rgb(0,0,0); stroke-width: 1; stroke-dasharray: none; stroke-linecap: butt; stroke-dashoffset: 0; stroke-linejoin: miter; stroke-miterlimit: 4; fill: rgb(255,198,99); fill-rule: nonzero; opacity: 1;" vector-effect="non-scaling-stroke"  cx="0" cy="0" r="35" />
</g>
<g transform="matrix(0.82 0 0 0.82 463.77 444.31)" id="82c2ccc5-4cc8-4834-b813-a5656f53244f"  >
<circle style="stroke: rgb(0,0,0); stroke-width: 1; stroke-dasharray: none; stroke-linecap: butt; stroke-dashoffset: 0; stroke-linejoin: miter; stroke-miterlimit: 4; fill: rgb(134,80,0); fill-rule: nonzero; opacity: 1;" vector-effect="non-scaling-stroke"  cx="0" cy="0" r="35" />
</g>
<g transform="matrix(0.91 0 0 0.91 680.9 486.43)" id="82c2ccc5-4cc8-4834-b813-a5656f53244f"  >
<circle style="stroke: rgb(0,0,0); stroke-width: 1; stroke-dasharray: none; stroke-linecap: butt; stroke-dashoffset: 0; stroke-linejoin: miter; stroke-miterlimit: 4; fill: rgb(134,80,0); fill-rule: nonzero; opacity: 1;" vector-effect="non-scaling-stroke"  cx="0" cy="0" r="35" />
</g>
<g transform="matrix(-0.5 0 0 0.5 572.36 685.8)" id="f8ce8509-c677-4048-8f05-5cdd7f1213c7"  >
<circle style="stroke: rgb(0,0,0); stroke-width: 1; stroke-dasharray: none; stroke-linecap: butt; stroke-dashoffset: 0; stroke-linejoin: miter; stroke-miterlimit: 4; fill: rgb(255,198,99); fill-rule: nonzero; opacity: 1;" vector-effect="non-scaling-stroke"  cx="0" cy="0" r="35" />
</g>
<g transform="matrix(-0.5 0 0 0.5 652 563.66)" id="f8ce8509-c677-4048-8f05-5cdd7f1213c7"  >
<circle style="stroke: rgb(0,0,0); stroke-width: 1; stroke-dasharray: none; stroke-linecap: butt; stroke-dashoffset: 0; stroke-linejoin: miter; stroke-miterlimit: 4; fill: rgb(255,198,99); fill-rule: nonzero; opacity: 1;" vector-effect="non-scaling-stroke"  cx="0" cy="0" r="35" />
</g>
<g transform="matrix(1 0 0 1 557.76 317.21)"  >
<path style="stroke: rgb(255,255,255); stroke-opacity: 0; stroke-width: 30; stroke-dasharray: none; stroke-linecap: round; stroke-dashoffset: 0; stroke-linejoin: round; stroke-miterlimit: 10; fill: none; fill-rule: nonzero; opacity: 1;" vector-effect="non-scaling-stroke"  transform=" translate(-557.76, -317.21)" d="M 515.2989473684206 314.2298684210522 Q 515.3289473684206 314.25986842105215 516.3157894736837 314.25986842105215 Q 517.3026315789468 314.25986842105215 518.28947368421 315.24671052631527 Q 519.2763157894732 316.23355263157845 520.2631578947364 316.23355263157845 Q 521.2499999999995 316.23355263157845 522.2368421052627 317.2203947368416 Q 523.2236842105258 318.20723684210475 524.2105263157889 318.20723684210475 Q 525.1973684210521 318.20723684210475 526.1842105263153 318.20723684210475 Q 527.1710526315784 318.20723684210475 529.1447368421047 318.20723684210475 Q 531.1184210526311 318.20723684210475 534.0789473684206 318.20723684210475 Q 537.0394736842101 318.20723684210475 539.0131578947364 318.20723684210475 Q 540.9868421052627 318.20723684210475 543.9473684210521 318.20723684210475 Q 546.9078947368416 318.20723684210475 547.8947368421047 318.20723684210475 Q 548.8815789473679 318.20723684210475 551.8421052631574 318.20723684210475 Q 554.8026315789468 318.20723684210475 555.78947368421 318.20723684210475 Q 556.7763157894732 318.20723684210475 558.7499999999995 318.20723684210475 Q 560.7236842105258 318.20723684210475 562.697368421052 318.20723684210475 Q 564.6710526315784 318.20723684210475 565.6578947368416 318.20723684210475 Q 566.6447368421047 318.20723684210475 567.6315789473679 318.20723684210475 Q 568.6184210526311 318.20723684210475 569.6052631578942 318.20723684210475 Q 570.5921052631574 318.20723684210475 572.5657894736837 318.20723684210475 Q 574.5394736842101 318.20723684210475 575.5263157894732 318.20723684210475 Q 576.5131578947363 318.20723684210475 578.4868421052627 318.20723684210475 Q 580.4605263157889 318.20723684210475 583.4210526315784 318.20723684210475 Q 586.3815789473679 318.20723684210475 587.368421052631 319.1940789473679 Q 588.3552631578942 320.1809210526311 589.3421052631575 320.1809210526311 Q 590.3289473684206 320.1809210526311 591.3157894736837 320.1809210526311 Q 592.3026315789468 320.1809210526311 593.28947368421 320.1809210526311 Q 594.2763157894732 320.1809210526311 595.2631578947364 320.1809210526311 Q 596.2499999999995 320.1809210526311 597.2368421052627 320.1809210526311 Q 598.2236842105258 320.1809210526311 599.2105263157889 320.1809210526311 L 600.2273684210521 320.1809210526311" stroke-linecap="round" />
</g>
<g transform="matrix(1 0 0 1 434.04 420.23)"  >
<path style="stroke: rgb(255,255,255); stroke-opacity: 0; stroke-width: 49.4; stroke-dasharray: none; stroke-linecap: round; stroke-dashoffset: 0; stroke-linejoin: round; stroke-miterlimit: 10; fill: none; fill-rule: nonzero; opacity: 1;" vector-effect="non-scaling-stroke"  transform=" translate(-434.04, -420.23)" d="M 402.1380999999991 394.8724749999991 Q 402.1874999999991 394.9218749999991 403.1249999999991 394.9218749999991 Q 404.0624999999991 394.9218749999991 404.9999999999991 395.8593749999991 Q 405.9374999999991 396.7968749999991 407.8124999999991 397.7343749999991 Q 409.6874999999991 398.6718749999991 411.5624999999991 399.6093749999991 Q 413.4374999999991 400.5468749999991 415.3124999999991 401.4843749999991 Q 417.1874999999991 402.4218749999991 419.9999999999991 404.2968749999991 Q 422.8124999999991 406.1718749999991 425.6249999999991 408.9843749999991 Q 428.4374999999991 411.7968749999991 431.2499999999991 413.6718749999991 Q 434.0624999999991 415.5468749999991 436.8749999999991 418.3593749999991 Q 439.6874999999991 421.1718749999991 443.4374999999991 423.9843749999991 Q 447.1874999999991 426.7968749999991 449.9999999999991 429.6093749999991 Q 452.8124999999991 432.4218749999991 454.6874999999991 434.2968749999991 Q 456.5624999999991 436.1718749999991 457.4999999999991 436.1718749999991 Q 458.4374999999991 436.1718749999991 458.4374999999991 437.1093749999991 Q 458.4374999999991 438.0468749999991 459.3749999999991 438.0468749999991 Q 460.3124999999991 438.0468749999991 460.3124999999991 438.9843749999991 Q 460.3124999999991 439.9218749999991 461.2499999999991 440.8593749999991 Q 462.1874999999991 441.7968749999991 464.0624999999991 442.7343749999991 Q 465.9374999999991 443.6718749999991 465.9374999999991 444.6093749999991 L 465.9374999999991 445.5962749999991" stroke-linecap="round" />
</g>
<g transform="matrix(1 0 0 1 496.87 319.92)"  >
<path style="stroke: rgb(255,255,255); stroke-opacity: 0; stroke-width: 49.4; stroke-dasharray: none; stroke-linecap: round; stroke-dashoffset: 0; stroke-linejoin: round; stroke-miterlimit: 10; fill: none; fill-rule: nonzero; opacity: 1;" vector-effect="non-scaling-stroke"  transform=" translate(-496.87, -319.92)" d="M 467.7630999999991 319.9218749999991 Q 467.8124999999991 319.9218749999991 468.7499999999991 319.9218749999991 Q 469.6874999999991 319.9218749999991 470.6249999999991 319.9218749999991 Q 471.5624999999991 319.9218749999991 472.4999999999991 319.9218749999991 Q 473.4374999999991 319.9218749999991 474.3749999999991 319.9218749999991 Q 475.3124999999991 319.9218749999991 476.2499999999991 319.9218749999991 Q 477.1874999999991 319.9218749999991 479.0624999999991 319.9218749999991 Q 480.9374999999991 319.9218749999991 483.7499999999991 319.9218749999991 Q 486.5624999999991 319.9218749999991 489.3749999999991 319.9218749999991 Q 492.1874999999991 319.9218749999991 494.0624999999991 319.9218749999991 Q 495.9374999999991 319.9218749999991 498.7499999999991 319.9218749999991 Q 501.5624999999991 319.9218749999991 502.4999999999991 319.9218749999991 Q 503.4374999999991 319.9218749999991 505.3124999999991 319.9218749999991 Q 507.1874999999991 319.9218749999991 508.1249999999991 319.9218749999991 Q 509.0624999999991 319.9218749999991 511.8749999999991 319.9218749999991 Q 514.6874999999991 319.9218749999991 516.5624999999991 319.9218749999991 Q 518.4374999999991 319.9218749999991 520.3124999999991 319.9218749999991 Q 522.1874999999991 319.9218749999991 524.0624999999991 319.9218749999991 L 525.9868999999991 319.9218749999991" stroke-linecap="round" />
</g>
<g transform="matrix(1 0 0 1 566.25 317.11)"  >
<path style="stroke: rgb(255,255,255); stroke-opacity: 0; stroke-width: 49.4; stroke-dasharray: none; stroke-linecap: round; stroke-dashoffset: 0; stroke-linejoin: round; stroke-miterlimit: 10; fill: none; fill-rule: nonzero; opacity: 1;" vector-effect="non-scaling-stroke"  transform=" translate(-566.25, -317.11)" d="M 554.0130999999991 318.0468749999991 Q 554.0624999999991 318.0468749999991 554.9999999999991 318.0468749999991 Q 555.9374999999991 318.0468749999991 556.8749999999991 318.0468749999991 Q 557.8124999999991 318.0468749999991 559.6874999999991 317.1093749999991 Q 561.5624999999991 316.1718749999991 564.3749999999991 316.1718749999991 Q 567.1874999999991 316.1718749999991 569.9999999999991 316.1718749999991 Q 572.8124999999991 316.1718749999991 573.7499999999991 316.1718749999991 Q 574.6874999999991 316.1718749999991 575.6249999999991 316.1718749999991 Q 576.5624999999991 316.1718749999991 577.4999999999991 316.1718749999991 L 578.4868999999991 316.1718749999991" stroke-linecap="round" />
</g>
<g transform="matrix(1 0 0 1 568.13 314.3)"  >
<path style="stroke: rgb(255,255,255); stroke-opacity: 0; stroke-width: 49.4; stroke-dasharray: none; stroke-linecap: round; stroke-dashoffset: 0; stroke-linejoin: round; stroke-miterlimit: 10; fill: none; fill-rule: nonzero; opacity: 1;" vector-effect="non-scaling-stroke"  transform=" translate(-568.12, -314.3)" d="M 580.3618999999991 314.2968749999991 Q 580.3124999999991 314.2968749999991 579.3749999999991 314.2968749999991 Q 578.4374999999991 314.2968749999991 577.4999999999991 314.2968749999991 Q 576.5624999999991 314.2968749999991 573.7499999999991 314.2968749999991 Q 570.9374999999991 314.2968749999991 568.1249999999991 314.2968749999991 Q 565.3124999999991 314.2968749999991 563.4374999999991 314.2968749999991 Q 561.5624999999991 314.2968749999991 558.7499999999991 314.2968749999991 L 555.8880999999991 314.2968749999991" stroke-linecap="round" />
</g>
<g transform="matrix(1 0 0 1 559.68 313.36)"  >
<path style="stroke: rgb(255,255,255); stroke-opacity: 0; stroke-width: 49.4; stroke-dasharray: none; stroke-linecap: round; stroke-dashoffset: 0; stroke-linejoin: round; stroke-miterlimit: 10; fill: none; fill-rule: nonzero; opacity: 1;" vector-effect="non-scaling-stroke"  transform=" translate(-559.69, -313.36)" d="M 550.2630999999991 314.2968749999991 Q 550.3124999999991 314.2968749999991 551.2499999999991 314.2968749999991 Q 552.1874999999991 314.2968749999991 554.9999999999991 314.2968749999991 Q 557.8124999999991 314.2968749999991 559.6874999999991 314.2968749999991 Q 561.5624999999991 314.2968749999991 563.4374999999991 313.3593749999991 Q 565.3124999999991 312.4218749999991 566.2499999999991 312.4218749999991 Q 567.1874999999991 312.4218749999991 568.1249999999991 312.4218749999991 L 569.1118999999991 312.4218749999991" stroke-linecap="round" />
</g>
<g transform="matrix(1 0 0 1 571.88 312.42)"  >
<path style="stroke: rgb(255,255,255); stroke-opacity: 0; stroke-width: 49.4; stroke-dasharray: none; stroke-linecap: round; stroke-dashoffset: 0; stroke-linejoin: round; stroke-miterlimit: 10; fill: none; fill-rule: nonzero; opacity: 1;" vector-effect="non-scaling-stroke"  transform=" translate(-571.87, -312.42)" d="M 570.8880999999991 312.4218749999991 Q 570.9374999999991 312.4218749999991 571.8749999999991 312.4218749999991 L 572.8618999999991 312.4218749999991" stroke-linecap="round" />
</g>
<g transform="matrix(1 0 0 1 568.92 312.42)"  >
<path style="stroke: rgb(255,255,255); stroke-opacity: 0; stroke-width: 49.4; stroke-dasharray: none; stroke-linecap: round; stroke-dashoffset: 0; stroke-linejoin: round; stroke-miterlimit: 10; fill: none; fill-rule: nonzero; opacity: 1;" vector-effect="non-scaling-stroke"  transform=" translate(-568.92, -312.42)" d="M 572.8618999999991 312.4218749999991 Q 572.8124999999991 312.4218749999991 573.7499999999991 312.4218749999991 Q 574.6874999999991 312.4218749999991 573.7499999999991 312.4218749999991 Q 572.8124999999991 312.4218749999991 568.1249999999991 312.4218749999991 L 563.3880999999991 312.4218749999991" stroke-linecap="round" />
</g>
<g transform="matrix(1 0 0 1 540 318.99)"  >
<path style="stroke: rgb(255,255,255); stroke-opacity: 0; stroke-width: 49.4; stroke-dasharray: none; stroke-linecap: round; stroke-dashoffset: 0; stroke-linejoin: round; stroke-miterlimit: 10; fill: none; fill-rule: nonzero; opacity: 1;" vector-effect="non-scaling-stroke"  transform=" translate(-532.5, -318.98)" d="M 533.4374999999991 317.9974749999991 Q 533.4374999999991 318.0468749999991 532.4999999999991 318.0468749999991 Q 531.5624999999991 318.0468749999991 531.5624999999991 318.9843749999991 L 531.5624999999991 319.9712749999991" stroke-linecap="round" />
</g>
<g transform="matrix(1 0 0 1 603.75 318.99)"  >
<path style="stroke: rgb(255,255,255); stroke-opacity: 0; stroke-width: 49.4; stroke-dasharray: none; stroke-linecap: round; stroke-dashoffset: 0; stroke-linejoin: round; stroke-miterlimit: 10; fill: none; fill-rule: nonzero; opacity: 1;" vector-effect="non-scaling-stroke"  transform=" translate(-603.75, -318.98)" d="M 585.8880999999991 319.9218749999991 Q 585.9374999999991 319.9218749999991 586.8749999999991 319.9218749999991 Q 587.8124999999991 319.9218749999991 588.7499999999991 319.9218749999991 Q 589.6874999999991 319.9218749999991 590.6249999999991 319.9218749999991 Q 591.5624999999991 319.9218749999991 592.4999999999991 319.9218749999991 Q 593.4374999999991 319.9218749999991 595.3124999999991 319.9218749999991 Q 597.1874999999991 319.9218749999991 598.1249999999991 319.9218749999991 Q 599.0624999999991 319.9218749999991 599.9999999999991 319.9218749999991 Q 600.9374999999991 319.9218749999991 601.8749999999991 319.9218749999991 Q 602.8124999999991 319.9218749999991 603.7499999999991 319.9218749999991 Q 604.6874999999991 319.9218749999991 605.6249999999991 318.9843749999991 Q 606.5624999999991 318.0468749999991 607.4999999999991 318.0468749999991 Q 608.4374999999991 318.0468749999991 610.3124999999991 318.0468749999991 Q 612.1874999999991 318.0468749999991 614.0624999999991 318.0468749999991 Q 615.9374999999991 318.0468749999991 617.8124999999991 318.0468749999991 Q 619.6874999999991 318.0468749999991 620.6249999999991 318.0468749999991 L 621.6118999999991 318.0468749999991" stroke-linecap="round" />
</g>
<g transform="matrix(1 0 0 1 589.69 344.3)"  >
<path style="stroke: rgb(255,255,255); stroke-opacity: 0; stroke-width: 49.4; stroke-dasharray: none; stroke-linecap: round; stroke-dashoffset: 0; stroke-linejoin: round; stroke-miterlimit: 10; fill: none; fill-rule: nonzero; opacity: 1;" vector-effect="non-scaling-stroke"  transform=" translate(-589.69, -344.3)" d="M 589.6380999999991 344.2968749999991 L 589.7368999999991 344.2968749999991" stroke-linecap="round" />
</g>
<g transform="matrix(1 0 0 1 589.69 344.3)"  >
<path style="stroke: rgb(255,255,255); stroke-opacity: 0; stroke-width: 49.4; stroke-dasharray: none; stroke-linecap: round; stroke-dashoffset: 0; stroke-linejoin: round; stroke-miterlimit: 10; fill: none; fill-rule: nonzero; opacity: 1;" vector-effect="non-scaling-stroke"  transform=" translate(-589.69, -344.3)" d="M 589.6380999999991 344.2968749999991 L 589.7368999999991 344.2968749999991" stroke-linecap="round" />
</g>
<g transform="matrix(1 0 0 1 578.44 331.17)"  >
<path style="stroke: rgb(255,255,255); stroke-opacity: 0; stroke-width: 49.4; stroke-dasharray: none; stroke-linecap: round; stroke-dashoffset: 0; stroke-linejoin: round; stroke-miterlimit: 10; fill: none; fill-rule: nonzero; opacity: 1;" vector-effect="non-scaling-stroke"  transform=" translate(-578.44, -331.17)" d="M 578.3880999999991 331.1718749999991 L 578.4868999999991 331.1718749999991" stroke-linecap="round" />
</g>
<g transform="matrix(1 0 0 1 642.18 333.99)"  >
<path style="stroke: rgb(255,255,255); stroke-opacity: 0; stroke-width: 28.8; stroke-dasharray: none; stroke-linecap: round; stroke-dashoffset: 0; stroke-linejoin: round; stroke-miterlimit: 10; fill: none; fill-rule: nonzero; opacity: 1;" vector-effect="non-scaling-stroke"  transform=" translate(-642.19, -333.98)" d="M 625.283699999999 325.5468749999991 Q 625.3124999999991 325.5468749999991 626.2499999999991 325.5468749999991 Q 627.1874999999991 325.5468749999991 628.1249999999991 325.5468749999991 Q 629.0624999999991 325.5468749999991 629.9999999999991 325.5468749999991 Q 630.9374999999991 325.5468749999991 631.8749999999991 325.5468749999991 Q 632.8124999999991 325.5468749999991 633.7499999999991 326.4843749999991 Q 634.6874999999991 327.4218749999991 635.6249999999991 327.4218749999991 Q 636.5624999999991 327.4218749999991 637.4999999999991 327.4218749999991 Q 638.4374999999991 327.4218749999991 638.4374999999991 328.3593749999991 Q 638.4374999999991 329.2968749999991 640.3124999999991 329.2968749999991 Q 642.1874999999991 329.2968749999991 642.1874999999991 330.2343749999991 Q 642.1874999999991 331.1718749999991 643.1249999999991 331.1718749999991 Q 644.0624999999991 331.1718749999991 644.9999999999991 331.1718749999991 Q 645.9374999999991 331.1718749999991 645.9374999999991 332.1093749999991 Q 645.9374999999991 333.0468749999991 646.8749999999991 333.0468749999991 Q 647.8124999999991 333.0468749999991 647.8124999999991 333.9843749999991 Q 647.8124999999991 334.9218749999991 648.7499999999991 334.9218749999991 Q 649.6874999999991 334.9218749999991 650.6249999999991 335.8593749999991 Q 651.5624999999991 336.7968749999991 652.4999999999991 336.7968749999991 Q 653.4374999999991 336.7968749999991 654.3749999999991 338.6718749999991 Q 655.3124999999991 340.5468749999991 656.2499999999991 340.5468749999991 Q 657.1874999999991 340.5468749999991 657.1874999999991 341.4843749999991 Q 657.1874999999991 342.4218749999991 658.1249999999991 342.4218749999991 L 659.0912999999991 342.4218749999991" stroke-linecap="round" />
</g>
<g transform="matrix(1 0 0 1 640.29 330.24)"  >
<path style="stroke: rgb(255,255,255); stroke-opacity: 0; stroke-width: 28.8; stroke-dasharray: none; stroke-linecap: round; stroke-dashoffset: 0; stroke-linejoin: round; stroke-miterlimit: 10; fill: none; fill-rule: nonzero; opacity: 1;" vector-effect="non-scaling-stroke"  transform=" translate(-640.3, -328.36)" d="M 659.0624999999991 344.3256749999991 Q 659.0624999999991 344.2968749999991 659.0624999999991 343.3593749999991 Q 659.0624999999991 342.4218749999991 659.0624999999991 341.4843749999991 Q 659.0624999999991 340.5468749999991 658.1249999999991 339.6093749999991 Q 657.1874999999991 338.6718749999991 656.2499999999991 337.7343749999991 Q 655.3124999999991 336.7968749999991 651.5624999999991 333.9843749999991 Q 647.8124999999991 331.1718749999991 644.9999999999991 328.3593749999991 Q 642.1874999999991 325.5468749999991 640.3124999999991 323.6718749999991 Q 638.4374999999991 321.7968749999991 636.5624999999991 320.8593749999991 Q 634.6874999999991 319.9218749999991 633.7499999999991 318.9843749999991 Q 632.8124999999991 318.0468749999991 631.8749999999991 318.0468749999991 Q 630.9374999999991 318.0468749999991 629.9999999999991 318.0468749999991 Q 629.0624999999991 318.0468749999991 628.1249999999991 317.1093749999991 Q 627.1874999999991 316.1718749999991 626.2499999999991 316.1718749999991 Q 625.3124999999991 316.1718749999991 625.3124999999991 315.2343749999991 Q 625.3124999999991 314.2968749999991 624.3749999999991 314.2968749999991 Q 623.4374999999991 314.2968749999991 622.4999999999991 313.3593749999991 L 621.533699999999 312.3930749999991" stroke-linecap="round" />
</g>
<g transform="matrix(1 0 0 1 686.25 327.43)"  >
<path style="stroke: rgb(255,255,255); stroke-opacity: 0; stroke-width: 30; stroke-dasharray: none; stroke-linecap: round; stroke-dashoffset: 0; stroke-linejoin: round; stroke-miterlimit: 10; fill: none; fill-rule: nonzero; opacity: 1;" vector-effect="non-scaling-stroke"  transform=" translate(-573.75, -304.92)" d="M 540.9074999999991 306.7968749999991 Q 540.9374999999991 306.7968749999991 545.6249999999991 306.7968749999991 Q 550.3124999999991 306.7968749999991 552.1874999999991 306.7968749999991 Q 554.0624999999991 306.7968749999991 555.9374999999991 305.8593749999991 Q 557.8124999999991 304.9218749999991 558.7499999999991 304.9218749999991 Q 559.6874999999991 304.9218749999991 561.5624999999991 304.9218749999991 Q 563.4374999999991 304.9218749999991 564.3749999999991 304.9218749999991 Q 565.3124999999991 304.9218749999991 567.1874999999991 304.9218749999991 Q 569.0624999999991 304.9218749999991 571.8749999999991 304.9218749999991 Q 574.6874999999991 304.9218749999991 576.5624999999991 304.9218749999991 Q 578.4374999999991 304.9218749999991 581.2499999999991 304.9218749999991 Q 584.0624999999991 304.9218749999991 586.8749999999991 304.9218749999991 Q 589.6874999999991 304.9218749999991 590.6249999999991 303.9843749999991 Q 591.5624999999991 303.0468749999991 592.4999999999991 303.0468749999991 Q 593.4374999999991 303.0468749999991 594.3749999999991 303.0468749999991 Q 595.3124999999991 303.0468749999991 596.2499999999991 303.0468749999991 Q 597.1874999999991 303.0468749999991 599.0624999999991 303.0468749999991 Q 600.9374999999991 303.0468749999991 601.8749999999991 303.0468749999991 Q 602.8124999999991 303.0468749999991 604.6874999999991 303.0468749999991 L 606.5924999999991 303.0468749999991" stroke-linecap="round" />
</g>
<g transform="matrix(1 0 0 1 628.12 329.3)"  >
<path style="stroke: rgb(255,255,255); stroke-opacity: 0; stroke-width: 30; stroke-dasharray: none; stroke-linecap: round; stroke-dashoffset: 0; stroke-linejoin: round; stroke-miterlimit: 10; fill: none; fill-rule: nonzero; opacity: 1;" vector-effect="non-scaling-stroke"  transform=" translate(-628.12, -329.3)" d="M 610.2824999999991 325.5468749999991 Q 610.3124999999991 325.5468749999991 610.3124999999991 326.4843749999991 Q 610.3124999999991 327.4218749999991 611.2499999999991 327.4218749999991 Q 612.1874999999991 327.4218749999991 613.1249999999991 327.4218749999991 Q 614.0624999999991 327.4218749999991 614.9999999999991 327.4218749999991 Q 615.9374999999991 327.4218749999991 616.8749999999991 328.3593749999991 Q 617.8124999999991 329.2968749999991 618.7499999999991 329.2968749999991 Q 619.6874999999991 329.2968749999991 621.5624999999991 329.2968749999991 Q 623.4374999999991 329.2968749999991 624.3749999999991 330.2343749999991 Q 625.3124999999991 331.1718749999991 627.1874999999991 331.1718749999991 Q 629.0624999999991 331.1718749999991 629.9999999999991 331.1718749999991 Q 630.9374999999991 331.1718749999991 631.8749999999991 331.1718749999991 Q 632.8124999999991 331.1718749999991 633.7499999999991 331.1718749999991 Q 634.6874999999991 331.1718749999991 635.6249999999991 332.1093749999991 Q 636.5624999999991 333.0468749999991 638.4374999999991 333.0468749999991 Q 640.3124999999991 333.0468749999991 642.1874999999991 333.0468749999991 Q 644.0624999999991 333.0468749999991 644.9999999999991 333.0468749999991 L 645.9674999999991 333.0468749999991" stroke-linecap="round" />
</g>
</svg>